<?xml version="1.0" ?><svg xmlns="http://www.w3.org/2000/svg" id="Layer_1" data-name="Layer 1" viewBox="0 0 128 128"><defs><style>
      .cls-1 {
        stroke-width: 0px;
      }
    </style></defs><path id="Union" class="cls-1" d="m66.23,25.37c0,6.93-4.79,12.74-11.24,14.3v5.94c4.25.8,8,3.04,10.71,6.19l6.84-3.95c-.34-1.23-.52-2.53-.52-3.87,0-8.13,6.59-14.71,14.71-14.71s14.71,6.58,14.71,14.71-6.58,14.71-14.71,14.71c-4.29,0-8.15-1.84-10.84-4.77l-6.72,3.88c.68,1.94,1.05,4.03,1.05,6.2s-.37,4.25-1.05,6.19l6.72,3.88c2.69-2.93,6.55-4.77,10.84-4.77,8.13,0,14.71,6.59,14.71,14.71s-6.58,14.71-14.71,14.71-14.71-6.58-14.71-14.71c0-1.34.18-2.64.52-3.88l-6.84-3.94c-2.71,3.15-6.46,5.39-10.71,6.19v5.94c6.45,1.56,11.24,7.37,11.24,14.3,0,8.12-6.59,14.71-14.72,14.71s-14.71-6.59-14.71-14.71c0-6.94,4.8-12.75,11.25-14.31v-5.93c-8.68-1.62-15.24-9.24-15.24-18.38s6.56-16.77,15.24-18.39v-5.93c-6.45-1.56-11.25-7.37-11.25-14.31,0-8.12,6.59-14.71,14.71-14.71s14.72,6.59,14.72,14.71Z"/></svg>