<svg width="124" height="112" viewBox="0 0 124 112" fill="none" xmlns="http://www.w3.org/2000/svg">
<path fill-rule="evenodd" clip-rule="evenodd" d="M87.2305 0.605469H37.5126C33.1173 1.54635 30.8839 2.48586 27.9737 6.09756L2.24756 50.3234C0.704685 55.2098 0.244067 57.8921 2.24756 62.1747L25.9503 104.088C28.299 108.817 30.3692 110.702 36.3564 111.893H89.543C94.4363 109.841 96.4842 108.101 99.0819 104.088L122.496 62.1747C124.489 58.3109 124.309 55.8296 123.074 51.1906L97.3475 6.09756C93.558 2.68247 91.3196 1.67598 87.2305 0.605469ZM66.2396 56.9721V30.0898H58.7241V56.9721H66.2396ZM50.1809 42.036C46.2039 45.4347 43.6927 50.4751 43.6927 56.105H43.6935C43.6935 66.3238 51.9768 74.6047 62.1932 74.6047C72.4097 74.6047 80.6929 66.3238 80.6929 56.105C80.6929 50.4753 78.1815 45.4347 74.2047 42.036L79.0871 36.3226C84.6625 41.0874 88.208 48.1855 88.208 56.1051C88.208 70.4742 76.5601 82.1203 62.1928 82.1203C47.8255 82.1203 36.1776 70.4742 36.1776 56.1051C36.1776 48.1855 39.7229 41.0875 45.2985 36.3226L50.1809 42.036Z" fill="#6DB33F"/>
</svg>
